<svg viewBox="-670.0 -223.33333333333334 1340.0 446.6666666666667" role="img" aria-label="Stilisierte Karte: Rotebühlstraße 108, Stuttgart" xmlns="http://www.w3.org/2000/svg" preserveAspectRatio="xMidYMid slice">
  <rect x="-670.0" y="-223.33333333333334" width="1340.0" height="446.6666666666667" fill="#000000"/>
  <g>
    <path d="M391.4,-133.5 L393.7,-127.4 L428.5,-44.4 L431.1,-38.5 M176.8,-331.2 L178.4,-343.3 L174.4,-353.4 L164.6,-374.0 L149.0,-408.8 M-257.8,-87.2 L-255.0,-82.2 M-99.0,-52.2 L-109.6,-73.9 L-116.0,-87.6 M-116.0,-87.6 L-129.1,-115.4 L-129.8,-116.7 M-129.8,-116.7 L-152.1,-165.4 M-255.0,-82.2 L-250.7,-72.7 M-250.7,-72.7 L-246.8,-64.2 L-243.1,-56.1 L-215.1,5.1 M149.0,-408.8 L150.1,-415.7 L138.6,-446.7 M-26.0,-384.3 L-1.6,-377.9 M-32.8,-363.6 L-30.9,-369.5 L-26.0,-384.3 M-113.8,-407.3 L-110.7,-407.7 L-105.1,-406.3 M431.1,-38.5 L433.4,-33.2 L446.0,-5.0" stroke="#ffffff" stroke-width="3.2" stroke-opacity="0.50" fill="none" stroke-linecap="round" stroke-linejoin="round"/>
    <path d="M136.7,-164.1 L166.9,-99.1 L174.7,-82.3 L179.8,-71.4 L182.8,-65.2 L184.8,-61.0 L187.7,-54.9 M447.5,-157.8 L451.7,-148.3 L474.9,-96.9 L500.5,-41.6 L502.3,-38.2 L505.5,-36.6 M523.0,-353.6 L517.5,-364.8 L508.8,-382.5 L468.9,-461.8 M56.3,271.3 L61.3,280.8 L61.4,299.5 M281.1,336.0 L298.4,355.8 L306.1,365.9 M-780.9,66.1 L-776.1,62.9 L-773.4,61.0 L-755.1,48.4 L-714.0,17.5 L-684.2,-3.5 L-678.8,-8.4 L-675.9,-15.2 L-675.2,-25.0 L-674.2,-58.7 L-672.6,-108.7 L-675.0,-126.2 L-731.0,-203.1 L-732.3,-204.9 L-736.4,-210.1 M-672.7,159.8 L-671.6,162.2 L-668.3,166.9 L-664.6,172.9 L-659.6,180.3 L-657.2,183.2 L-652.7,188.4 L-630.4,210.4 L-623.5,220.7 L-606.3,256.8 L-596.6,283.9 L-591.2,301.2 L-585.8,318.7 L-585.3,320.5 L-582.6,333.2 L-576.5,339.1 L-548.5,337.6 L-525.9,335.9 L-501.3,335.7 L-475.9,336.8 M-479.1,278.0 L-500.9,280.5 L-536.6,288.7 L-591.2,301.2 M-359.5,-212.1 L-329.8,-223.9 L-322.5,-226.8 M-731.5,-382.2 L-718.4,-382.4 L-679.7,-382.9 L-676.2,-382.8 L-620.9,-383.0 L-575.1,-383.4 L-487.3,-383.6 L-484.4,-386.3 M306.1,365.9 L308.8,359.4 L311.8,354.0 L316.3,344.9 M-486.2,-56.6 L-485.7,-52.2 L-484.2,-48.9 L-482.5,-47.6 L-479.5,-46.2 L-475.4,-46.2 L-471.7,-48.1 L-469.4,-51.5 L-468.8,-55.6 L-470.2,-59.4 L-472.6,-61.8 L-475.6,-63.1 L-478.9,-63.2 L-482.0,-62.0 L-484.4,-59.8 L-486.2,-56.6 M610.0,-390.9 L617.4,-373.9 L657.5,-285.9 M450.4,-314.7 L458.8,-298.3 L467.4,-280.9 L479.6,-256.3 L487.9,-239.3 L495.6,-223.8 M-571.4,-128.0 L-563.6,-128.1 L-559.4,-128.2 L-554.4,-129.8 L-542.1,-137.8 L-532.3,-144.2 L-494.4,-165.1 L-381.1,-204.2 M-632.5,53.8 L-658.4,20.3 L-659.7,16.4 M-49.8,-302.7 L-43.1,-329.7 L-32.8,-363.6 M-407.6,-258.1 L-441.9,-255.9 L-449.5,-255.6 L-457.3,-259.7 L-466.6,-259.8 L-489.5,-256.5 L-495.8,-253.4 L-575.4,-240.9 L-579.9,-240.2 L-599.3,-237.8 M614.8,-757.3 L616.3,-754.4 L647.8,-692.0 L666.5,-653.3 L671.1,-643.4 L704.0,-575.8 M-409.8,-492.9 L-413.7,-499.8 L-414.1,-500.2 L-415.7,-502.4 L-418.9,-507.8 L-429.0,-517.7 L-441.0,-526.8 L-480.3,-562.5 M-476.8,-402.3 L-454.2,-425.2 L-431.6,-448.2 L-413.7,-467.7 L-411.3,-471.0 L-407.8,-475.1 L-405.8,-480.7 M375.7,634.8 L358.2,628.5 L310.8,619.8 L284.5,615.1 L268.9,612.3 L265.8,611.7 M-575.1,-383.4 L-575.4,-392.5 L-575.5,-394.2 L-578.8,-462.7 L-579.0,-465.0 L-579.1,-466.9 M298.4,502.6 L304.3,502.8 L306.7,502.6 L312.0,501.7 L318.3,501.0 L323.4,501.2 L408.4,529.9 L433.8,538.1 L456.5,542.2 M-684.9,94.9 L-632.5,53.8 L-578.4,13.7 M-318.6,145.6 L-335.6,152.4 L-372.7,167.5 L-404.1,179.7 M-487.6,218.2 L-486.4,217.7 L-478.6,214.8 L-471.0,211.8 L-456.6,206.5 L-453.5,205.3 L-451.9,204.7 L-445.8,202.2 M-455.7,191.8 L-461.0,194.3 L-462.1,194.9 L-463.5,195.6 L-475.4,200.5 L-482.9,203.6 L-490.8,206.6 L-491.9,206.9 L-498.4,209.3 L-511.0,214.1 L-550.7,229.7 L-566.2,240.2 L-586.3,248.5 L-606.3,256.8 M280.6,-515.6 L286.3,-518.1 L335.3,-541.8 L360.5,-553.6 L373.7,-559.7 L404.3,-574.0 L409.2,-576.3 L414.2,-578.5 M640.8,-101.7 L641.1,-104.0 L640.8,-105.9 L593.9,-205.1 L592.8,-207.4 L589.2,-215.0 M-93.4,-598.5 L-86.6,-599.2 L-29.4,-617.2 L48.5,-642.0 L63.6,-646.8 L85.1,-653.4 L91.3,-655.3 L114.9,-662.4 L117.1,-663.1 L133.2,-667.9 L169.6,-679.8 L198.2,-689.1 M-60.1,656.2 L-72.0,653.8 L-104.7,659.0 L-150.5,668.3 L-207.2,679.4 L-243.2,686.5 L-266.7,692.1 L-294.8,701.0 L-339.8,716.5 L-352.9,723.0 L-364.5,729.3 L-388.7,742.1 L-427.0,756.3 L-450.8,765.6 L-460.8,772.9 L-468.1,779.1 L-480.1,790.3 L-494.2,805.8 L-501.2,813.5 L-509.9,821.5 L-520.6,828.8 L-530.0,834.1 L-546.7,840.3 L-564.0,844.9 L-593.9,850.7 L-611.2,855.2 L-618.8,859.9 L-624.0,866.8 L-628.3,875.8 L-630.0,881.8 L-630.1,888.8 L-626.9,898.6 L-621.4,913.2 L-620.6,922.6 L-621.7,931.3 L-625.0,941.1 L-633.7,951.6 L-641.3,958.7 L-650.0,965.8 L-661.6,972.8 L-675.1,978.8 L-689.3,981.2 L-699.6,978.8 L-713.2,974.4 L-726.2,966.1 L-732.4,962.6 L-737.7,960.7 L-743.4,960.9 L-748.2,962.3 M-122.9,198.2 L-146.3,193.1 L-169.9,186.6 L-195.9,174.4 L-221.7,158.5 L-237.1,145.9 L-249.7,132.1 M-366.7,-620.2 L-361.5,-615.2 L-358.4,-564.0 L-355.4,-502.2 L-355.1,-495.0 M-54.4,41.4 L-58.8,32.1 L-99.0,-52.2 M-215.1,5.1 L-186.9,61.1 L-178.6,78.6 L-173.6,88.6 M447.5,-157.8 L443.2,-167.3 L440.7,-172.7 L431.5,-193.1 L428.2,-200.2 L420.1,-217.1 L419.1,-219.1 L405.6,-247.2 L387.4,-284.0 L334.1,-399.0 L326.3,-416.2 L300.6,-472.4 L297.2,-479.9 L295.7,-483.1 L283.6,-509.4 L280.6,-515.6 L253.9,-570.9 L252.5,-573.8 L249.7,-579.8 M-794.7,-546.3 L-787.7,-548.1 L-761.3,-549.5 L-741.5,-550.4 L-692.7,-553.7 L-687.3,-552.3 L-583.4,-558.1 L-538.1,-560.0 L-511.3,-561.2 L-493.7,-561.9 L-480.3,-562.5 M-583.4,-558.1 L-585.8,-602.7 M-659.7,-608.0 L-664.7,-615.0 L-671.4,-624.3 L-684.1,-642.7 L-695.3,-653.0 L-697.5,-655.1 L-707.1,-664.3 L-716.9,-673.0 L-727.5,-682.6 L-780.4,-727.3 L-812.0,-752.6 L-815.5,-757.5 L-816.7,-761.0 L-817.2,-763.9 L-817.0,-767.1 L-816.1,-769.4 L-812.2,-773.4 L-806.7,-777.7 L-745.3,-814.1 M91.8,-353.5 L128.9,-343.7 L147.1,-339.0 L176.8,-331.2 L179.1,-330.6 L187.1,-328.5 M-484.4,-59.8 L-489.6,-64.8 L-523.3,-105.5 L-526.2,-108.9 M468.9,-461.8 L473.1,-464.0 L480.8,-467.8 L486.0,-470.3 M617.6,-535.4 L622.9,-537.9 L677.6,-563.5 L704.0,-575.8 M673.5,-420.6 L685.4,-417.5 L687.5,-416.7 L706.0,-409.4 M31.6,-662.2 L39.0,-646.4 L48.5,-642.0 L60.6,-615.8 L67.0,-601.9 L93.4,-545.2 L100.9,-529.0 L98.2,-519.6 M242.5,-215.2 L237.6,-224.2 L231.9,-235.9 L223.5,-253.4 M-240.4,-355.6 L-240.7,-365.1 L-240.6,-410.7 L-240.5,-440.3 L-240.5,-461.2 L-240.4,-491.5 M-198.0,-260.8 L-200.9,-266.2 L-202.9,-270.1 L-205.2,-274.7 M-348.2,-368.3 L-344.8,-302.2 L-342.6,-262.5 L-340.0,-257.8 L-337.4,-253.2 L-322.5,-226.8 L-319.6,-220.4 L-307.2,-192.8 L-303.4,-184.5 L-299.4,-175.9 L-257.8,-87.2 M48.7,261.6 L18.0,194.6 L-12.1,130.9 L-13.1,128.9 L-13.5,128.1 L-23.7,107.3 L-26.2,101.4 L-28.4,96.8 L-36.7,78.2 L-38.2,74.9 L-50.2,49.9 M69.0,407.8 L83.3,403.2 L135.9,385.0 L225.8,353.8 L236.8,350.1 L240.2,349.1 L281.1,336.0 M-378.4,905.7 L-359.3,893.0 L-342.2,886.2 L-315.2,880.8 L-286.5,879.2 L-280.3,879.1 L-233.3,878.0 L-222.6,875.9 L-211.5,870.6 L-202.9,865.0 L-193.9,857.8 L-154.4,824.6 L-143.5,816.3 L-131.1,810.0 L-120.2,806.6 L-109.5,804.9 L-100.5,804.8 L-64.7,803.5 L-29.6,801.5 L-18.0,798.1 L-6.0,791.8 L5.2,782.1 L11.2,774.3 L15.9,765.0 L18.0,756.7 L21.1,713.9 L25.1,695.4 L31.0,677.9 L45.0,645.6 L61.8,611.7 L91.3,561.7 L109.4,537.0 L121.5,523.8 L151.1,501.7 L197.0,469.4 L242.3,438.8 L264.7,422.1 L283.8,402.7 L291.0,392.6 L297.3,383.7 L303.1,373.3 L306.1,365.9 M-242.9,271.7 L-246.5,235.1 M-434.8,518.0 L-440.4,529.3 L-440.4,533.8 L-436.8,538.7 L-425.6,544.4 L-416.5,549.6 L-416.5,551.6 L-416.5,556.0 L-423.5,560.5 L-458.8,571.5 L-513.1,588.5 L-563.2,606.3 L-628.3,623.3 L-641.9,630.4 L-742.8,657.8 L-777.2,674.2 L-785.7,677.8 L-794.3,678.4 L-802.1,669.2 L-808.5,659.8 L-813.2,644.1 L-814.6,639.6 M-465.6,-62.2 L-350.6,-150.4 L-309.9,-179.8 L-303.4,-184.5 L-295.1,-190.5 L-257.4,-217.8 L-203.5,-256.8 L-198.0,-260.8 L-121.2,-317.4 M-470.2,-59.4 L-465.6,-62.2 M-241.2,-661.5 L-235.6,-664.5 L-222.1,-671.3 L-225.2,-678.8 L-231.3,-692.3 M-240.5,-440.3 L-192.8,-427.9 L-172.7,-422.6 L-133.6,-412.4 L-131.9,-412.0 L-113.8,-407.3 M289.0,329.9 L290.4,328.3 M377.5,-659.0 L376.0,-662.0 L374.9,-664.4 L373.7,-666.7 L372.0,-670.4 L369.2,-676.1 L363.7,-686.9 L340.9,-732.7 M468.9,-461.8 L446.9,-510.0 L414.2,-578.5 M-686.5,-593.7 L-659.7,-608.0 L-631.4,-621.3 L-627.8,-622.4 L-594.9,-632.6 L-589.4,-634.5 L-581.5,-636.8 L-547.2,-646.3 L-500.7,-657.9 L-465.0,-668.1 L-444.3,-675.0 L-422.4,-683.6 L-415.7,-686.9 L-398.2,-695.8 L-385.9,-702.9 L-375.2,-709.0 L-361.1,-719.0 L-350.3,-726.6 L-325.8,-749.5 L-324.5,-750.7 L-304.2,-771.1 L-300.1,-775.3 L-286.8,-787.1 L-258.8,-804.1 L-248.5,-809.4 L-223.1,-822.8 L-216.6,-826.2 L-208.2,-830.6 L-187.6,-839.9 L-125.6,-870.2 L-122.6,-871.5 L-118.2,-873.4 L-111.7,-876.0 L-105.0,-878.9 M-152.1,-165.4 L-170.2,-203.0 L-175.9,-214.9 L-193.9,-252.3 L-198.0,-260.8 M15.9,-107.7 L9.2,-104.5 M187.7,-54.9 L191.7,-46.3 L230.4,35.2 L233.9,43.1 L248.1,74.7 L250.3,78.2 L253.7,80.3 M-405.8,-480.7 L-407.0,-485.2 L-408.2,-488.1 L-409.8,-492.9 M253.7,80.3 L258.0,81.3 L262.1,80.4 L291.4,66.6 L298.4,64.5 L304.0,62.0 L308.0,60.2 L312.5,56.8 L331.1,47.8 L353.4,36.6 L355.3,34.3 L356.1,31.9 M-99.0,-52.2 L-178.9,-12.8 L-215.1,5.1 L-220.4,7.6 L-330.0,60.5 L-340.6,65.8 M410.5,142.3 L408.4,137.8 L406.1,133.0 M9.2,-104.5 L7.7,-103.8 L-37.6,-82.0 L-40.5,-80.6 L-45.2,-78.4 L-46.3,-77.8 L-99.0,-52.2 M523.0,-353.6 L510.0,-343.2 L495.9,-336.7 L450.4,-314.7 L387.4,-284.0 L367.6,-274.7 L354.8,-268.7 L329.9,-256.9 L318.1,-251.4 L308.8,-246.9 L274.7,-230.7 L267.1,-227.0 L242.5,-215.2 M288.6,-117.4 L271.1,-154.9 L254.4,-191.4 L242.5,-215.2 M136.7,-164.1 L109.4,-151.4 L79.1,-137.3 L65.9,-131.2 L53.9,-125.5 L50.2,-123.8 L40.9,-119.5 L37.1,-117.8 L25.2,-112.3 L23.1,-111.3 L15.9,-107.7 M-465.6,-62.2 L-462.9,-59.8 L-453.6,-53.0 L-410.7,-21.1 L-399.6,-16.1 L-387.6,-14.5 L-376.0,-16.2 L-355.6,-23.2 L-327.6,-37.0 L-289.9,-62.5 L-266.3,-80.7 L-264.3,-82.2 L-257.8,-87.2 L-250.6,-92.5 L-229.2,-108.3 L-182.1,-144.1 L-152.1,-165.4 M69.1,-267.4 L56.8,-270.8 L23.9,-280.7 L-49.8,-302.7 M187.1,-328.5 L240.3,-353.9 L287.8,-376.7 L334.1,-399.0 L460.0,-457.7 L464.9,-460.1 L468.9,-461.8 M69.1,-267.4 L71.0,-272.3 L187.1,-328.5 M210.4,-226.3 L216.3,-213.3 L220.1,-204.1 M242.5,-215.2 L220.1,-204.1 M220.1,-204.1 L164.7,-177.5 L146.4,-168.8 L136.7,-164.1 M352.3,18.2 L332.7,-25.5 L317.7,-56.0 L316.5,-58.8 L315.6,-60.8 L305.8,-80.5 M383.5,-645.7 L381.1,-651.1 L379.8,-653.8 L377.5,-659.0 M-272.8,592.1 L-249.3,585.5 L-238.9,581.4 L-231.3,576.1 L-219.3,566.8 L-217.7,562.9 L-217.3,559.1 L-219.2,552.5 L-224.3,542.9 L-228.7,539.8 L-241.0,532.9 L-243.8,530.4 L-246.0,525.9 L-248.4,514.0 L-248.1,504.1 M-649.0,1331.9 L-628.9,1311.4 L-580.6,1263.6 L-574.1,1253.4 L-571.6,1240.6 L-571.0,1229.5 L-572.7,1219.3 L-581.5,1201.3 L-622.2,1169.7 L-631.2,1159.3 L-635.7,1149.5 L-638.0,1143.7 L-639.5,1136.1 L-640.1,1129.1 L-640.1,1120.8 L-639.0,1115.2 L-636.6,1108.7 L-632.7,1099.5 L-625.9,1089.3 L-619.5,1082.2 L-613.1,1076.8 L-589.9,1056.4 L-574.3,1041.6 L-564.6,1030.2 L-559.3,1021.4 L-554.3,1010.6 L-549.5,996.2 L-537.6,959.2 L-529.5,944.5 L-516.7,933.2 L-490.3,916.9 L-470.3,906.8 L-459.4,899.4 L-457.9,898.3 L-446.4,884.5 L-444.0,879.7 L-432.6,857.8 L-422.7,845.3 L-412.8,836.3 L-403.3,828.8 L-380.4,818.8 L-356.5,805.1 L-339.0,788.8 L-330.6,781.7 L-326.9,779.0 L-316.1,771.8 L-301.7,765.8 L-172.7,731.6 L-148.1,723.7 L-131.6,718.0 L-110.8,706.8 L-91.9,694.2 L-83.5,686.0 L-77.2,679.9 L-68.8,669.0 L-60.1,656.2 L-42.5,622.4 L-16.3,580.5 L18.9,534.1 L45.4,499.2 L73.7,463.4 L77.7,456.9 L78.9,451.6 L79.3,445.1 L77.9,436.6 L69.0,407.8 M-621.1,452.9 L-616.3,453.0 L-613.7,453.2 M281.1,336.0 L289.0,329.9 M-173.6,88.6 L-170.3,95.4 L-163.2,111.6 L-125.6,192.7 L-122.9,198.2 L-92.9,266.2 L-91.4,272.7 M-349.3,-386.6 L-276.5,-366.1 L-257.4,-360.7 L-246.6,-357.5 L-240.4,-355.6 M-240.4,-355.6 L-225.1,-353.0 L-206.7,-347.6 L-166.4,-335.8 L-163.2,-334.9 L-134.0,-326.4 L-127.4,-323.6 L-123.3,-321.4 L-121.2,-317.4 M-279.5,893.4 L-273.6,892.9 L-255.0,895.2 L-240.2,896.8 L-226.1,897.5 L-224.3,897.4 L-213.5,896.9 L-203.8,896.4 L-192.7,894.5 L-184.5,892.1 L-167.4,886.8 L-155.6,881.5 L-139.2,871.4 L-130.3,865.1 L-120.4,859.8 L-109.6,855.9 L-99.7,852.7 L-87.0,850.7 L-57.9,850.4 L-54.9,850.4 L-25.1,850.3 L-10.6,847.7 L0.7,844.2 L12.5,839.3 L22.5,833.7 L31.2,827.4 L49.1,809.5 L58.1,797.1 L64.4,783.5 L69.2,769.1 L74.4,749.9 L93.0,668.5 L96.4,658.3 L101.5,646.9 L109.4,635.2 L117.7,625.8 L125.3,618.7 L136.2,611.3 L142.5,610.0 L152.0,614.7 M673.5,-420.6 L665.3,-416.6 L662.1,-415.2 L655.1,-411.6 M331.5,314.2 L334.8,307.6 L356.4,263.8 L367.0,242.0 M316.3,344.9 L331.5,314.2 M290.4,328.3 L294.8,322.2 L314.6,293.8 L339.9,255.2 L354.2,234.7 L375.5,203.2 L383.7,208.1 M-248.1,504.1 L-226.5,503.1 L-218.5,501.8 L-197.9,495.0 L-169.0,485.0 M679.3,361.2 L629.5,443.6 L620.2,456.6 L614.6,463.1 L605.3,470.5 L594.3,476.4 L581.1,481.0 L568.5,483.2 L556.2,483.0 L544.2,480.9 L524.7,474.3 L499.4,465.8 L487.0,461.7 L470.3,455.7 L457.9,449.0 L449.2,441.5 L441.8,432.6 L436.8,423.3 L432.7,412.5 L431.5,404.4 L432.4,395.5 L435.7,388.0 L442.5,381.0 L450.2,376.2 L461.7,373.2 M716.1,503.4 L709.1,517.1 L693.9,537.4 L685.5,547.2 L673.8,557.9 L653.6,574.5 L634.1,586.5 L613.7,597.0 L587.9,605.4 L562.1,613.9 L543.0,620.1 L533.9,622.8 L525.3,624.7 L507.3,626.7 L493.4,626.2 L478.6,622.9 L458.6,615.3 L448.2,613.6 L435.2,613.3 L423.3,615.2 L413.1,618.2 L399.2,624.3 L375.7,634.8 M-456.9,340.0 L-375.6,348.4 L-358.8,349.6 L-327.6,352.9 L-309.0,356.2 L-290.7,362.3 L-260.5,373.1 M-480.9,-386.2 L-474.7,-386.7 L-434.4,-386.9 M-366.7,-620.2 L-359.7,-623.8 L-355.6,-629.6 L-290.0,-662.3 M-290.0,-662.3 L-264.6,-675.3 L-249.8,-682.8 L-236.3,-689.7 M346.4,481.0 L329.2,491.9 L324.7,497.3 L323.4,501.2 M328.5,549.8 L368.2,625.2 L375.7,634.8 L406.2,699.7 L439.0,771.0 M-312.1,500.3 L-264.5,503.1 L-248.1,504.1 M-169.0,485.0 L-96.1,461.4 L-32.7,440.8 L-8.5,432.9 L69.0,407.8 M306.1,365.9 L319.1,381.7 L396.2,478.6 L421.2,511.6 L428.6,520.3 L436.8,528.5 L446.2,535.6 L456.5,542.2 M367.0,242.0 L383.7,208.1 L396.2,181.4 L403.9,165.8 L405.6,161.1 L404.9,155.6 L404.3,151.0 L402.3,146.1 M-863.8,647.9 L-814.6,639.6 L-745.5,624.7 L-661.0,609.9 L-632.3,603.7 L-604.7,594.2 L-577.2,581.7 L-520.6,556.0 L-503.8,548.2 L-462.2,528.8 L-434.8,518.0 L-407.1,504.8 L-395.9,501.8 L-383.3,499.4 L-369.6,498.4 L-312.1,500.3 M-613.7,453.2 L-579.5,449.8 L-515.0,429.9 L-495.9,426.7 L-480.2,424.4 L-466.6,423.3 L-447.1,423.3 L-439.4,423.4 L-409.9,423.9 L-398.0,425.2 L-370.2,431.2 L-360.6,436.4 M-205.2,-274.7 L-213.3,-271.8 L-236.8,-270.1 L-258.3,-268.7 L-317.3,-265.0 L-342.6,-262.5 L-348.1,-262.1 L-407.6,-258.1 M-152.1,-165.4 L-125.6,-178.6 L-108.0,-186.7 L-107.0,-187.1 L-104.3,-188.4 L-41.7,-218.7 L-37.2,-220.9 M690.7,-428.9 L686.4,-427.0 L682.9,-425.4 L673.5,-420.6 M456.5,542.2 L467.4,548.0 L479.3,553.3 L509.2,562.9 L531.1,567.2 L554.7,567.2 L565.7,566.9 L573.0,565.5 L587.2,562.8 L606.0,556.6 L626.0,548.3 L644.6,536.9 L661.9,524.4 L677.3,509.6 L689.0,496.8 L697.4,488.3 M-579.4,-473.2 L-579.8,-476.6 L-580.0,-479.2 L-580.4,-482.9 M-480.3,-562.5 L-442.4,-582.8 L-366.7,-620.2 M655.1,-411.6 L610.0,-390.9 L599.7,-385.9 L537.5,-356.2 L523.0,-353.6 M452.9,681.0 L459.9,681.4 L467.7,683.1 L488.8,686.7 L501.7,687.5 L515.5,686.5 L529.4,683.4 L568.9,671.6 L587.2,666.0 L670.8,641.7 L687.3,635.2 L702.9,626.6 L720.4,613.1 L731.3,602.6 L789.1,543.4 L792.5,539.7 M249.7,-579.8 L247.4,-584.6 L246.0,-587.5 L243.7,-592.2 M414.2,-578.5 L393.1,-624.2 L387.5,-636.6 L386.1,-639.8 L385.2,-641.9 L383.5,-645.7 M-205.2,-274.7 L-225.0,-321.1 L-235.7,-343.7 L-240.4,-355.6 M69.1,-267.4 L73.5,-266.1 L78.1,-264.8 L82.2,-263.6 L85.4,-262.7 L111.5,-255.1 L114.2,-254.3 L131.5,-249.3 L135.6,-248.1 L139.7,-246.9 L142.8,-246.0 L169.2,-238.3 L172.3,-237.4 L189.1,-232.5 L191.5,-231.8 L210.4,-226.3 M486.0,-470.3 L546.5,-501.5 L607.1,-530.5 M475.0,-607.8 L556.6,-647.6 L562.0,-650.0 M-434.4,-386.9 L-355.0,-387.0 L-349.3,-386.6 M-484.4,-386.3 L-481.9,-393.3 L-481.3,-395.5 L-476.8,-402.3 M51.0,272.0 L48.7,261.6 M-289.5,131.1 L-294.6,135.9 L-318.6,145.6 M-281.7,115.0 L-283.6,122.8 L-285.1,125.5 L-289.5,131.1 M-249.7,132.1 L-250.8,127.9 L-251.7,123.8 L-253.2,117.2 M-50.2,49.9 L-52.1,46.3 L-54.4,41.4 M562.0,-650.0 L568.7,-653.1 L647.8,-692.0 M356.1,31.9 L356.5,30.0 L356.4,28.0 L352.3,18.2 M364.7,44.6 L363.1,38.8 L362.8,36.5 L363.3,34.1 M406.1,133.0 L364.7,44.6 M607.1,-530.5 L611.4,-532.5 L617.6,-535.4 M66.1,-360.2 L72.8,-358.4 L83.9,-355.5 L91.8,-353.5 M-1.6,-377.9 L15.3,-373.5 L38.7,-367.3 L66.1,-360.2 M305.8,-80.5 L303.4,-86.0 L302.2,-88.6 L300.8,-91.8 L298.1,-98.0 M298.1,-98.0 L294.6,-105.0 L293.3,-107.8 L291.6,-111.3 L288.6,-117.4 M414.2,-578.5 L420.4,-581.5 L425.4,-584.0 L475.0,-607.8 M-37.2,-220.9 L-30.9,-224.0 L45.8,-260.9 L55.0,-265.3 L56.8,-270.8 M-475.9,336.8 L-456.9,340.0 M-354.4,-484.3 L-354.2,-478.9 L-354.1,-478.1 L-353.1,-460.9 L-351.8,-438.1 L-351.5,-433.4 L-350.5,-412.2 L-349.5,-394.0 L-349.3,-386.6 L-348.2,-368.3 M223.5,-253.4 L187.1,-328.5 M375.7,634.8 L346.7,650.7 L322.7,663.9 L300.3,676.1 L279.0,688.1 L255.2,701.3 L237.3,711.1 L214.0,723.7 M694.8,8.3 L661.8,-62.3 L648.0,-91.9 L647.2,-94.8 L646.8,-97.2 L647.0,-99.5 M647.0,-99.5 L647.9,-101.3 L649.4,-102.4 L693.1,-122.6 M363.3,34.1 L364.9,31.8 L367.5,30.1 L424.9,4.6 L446.0,-5.0 L494.5,-29.4 L498.1,-29.9 L502.8,-29.4 M502.8,-29.4 L506.0,-28.0 L508.2,-25.3 L554.2,74.4 M505.5,-36.6 L508.3,-36.2 L511.6,-37.0 L561.6,-59.7 L571.8,-64.7 L637.3,-96.9 L639.7,-99.0 L640.8,-101.7 M251.2,87.8 L253.5,88.8 L255.4,90.1 L257.0,92.1 L269.9,119.8 L277.3,135.2 L304.2,192.2 M131.3,141.9 L138.2,138.7 L141.4,137.3 L147.7,134.4 L220.2,100.5 L243.4,89.1 L246.2,87.8 L249.3,87.3 L251.2,87.8 M131.3,141.9 L122.5,145.9 L116.2,148.8 L79.2,166.0 L62.2,174.1 L46.3,181.6 L18.0,194.6 L6.9,198.2 L-8.9,201.0 L-19.7,202.4 L-63.0,202.2 L-99.3,201.1 L-122.9,198.2 M-579.1,-466.9 L-579.2,-468.8 L-579.4,-473.2 M-580.4,-482.9 L-580.9,-493.8 L-583.1,-549.8 L-583.4,-558.1 M-484.4,-386.3 L-480.9,-386.2 M243.7,-592.2 L242.3,-595.4 L240.9,-598.6 L238.7,-603.4 L221.0,-638.9 L198.2,-689.1" stroke="#ffffff" stroke-width="4.0" stroke-opacity="0.62" fill="none" stroke-linecap="round" stroke-linejoin="round"/>
    <path d="M243.7,-592.2 L233.0,-584.7 L204.8,-563.2 L180.1,-547.8 L170.7,-542.5 L153.8,-534.9 L137.9,-528.1 L127.2,-525.3 L111.7,-521.6 M249.7,-579.8 L258.3,-585.0 L317.9,-614.8 L372.9,-640.6 L376.3,-642.2 L383.5,-645.7 M117.2,-506.5 L138.6,-510.8 L148.5,-513.8 L170.1,-520.3 L178.0,-525.7 L181.7,-528.7 L200.3,-545.3 M183.4,249.8 L189.7,247.9 L192.5,246.9 L197.7,244.4 L226.6,229.4 M617.6,-535.4 L627.3,-515.6 L667.3,-433.9 L668.9,-430.6 L673.5,-420.6 M15.9,-107.7 L12.3,-115.2 L5.0,-131.3 L3.7,-134.2 L3.3,-135.1 L-5.7,-154.2 L-21.3,-187.2 L-31.3,-208.4 L-37.2,-220.9 M-88.6,-497.5 L-89.2,-503.4 L-89.5,-506.6 L-90.0,-511.0 M-88.6,-497.5 L-75.9,-498.3 L-67.4,-498.6 L-4.1,-503.5 L28.2,-505.3 L57.1,-505.9 L88.4,-506.6 L117.2,-506.5 M111.7,-521.6 L109.9,-521.3 L98.2,-519.6 L78.7,-517.1 L58.9,-516.6 M383.5,-645.7 L392.4,-650.1 L402.5,-656.1 L432.1,-670.4 L478.4,-692.5 L513.6,-709.1 L518.7,-711.4 L531.6,-717.4 M-579.4,-473.2 L-572.0,-473.6 L-523.4,-475.5 L-486.7,-476.0 L-436.0,-478.2 L-429.3,-478.8 L-425.9,-479.0 L-405.8,-480.7 M377.5,-659.0 L366.4,-653.3 L362.8,-651.5 L352.6,-646.2 L272.3,-607.1 M-405.8,-480.7 L-354.4,-484.3 L-240.4,-491.5 L-218.6,-492.4 L-210.9,-492.6 L-195.1,-493.5 L-177.7,-494.2 M-93.4,-598.5 L-93.8,-609.7 L-99.8,-746.3 L-100.3,-759.3 M-90.0,-511.0 L-102.4,-512.2 L-117.1,-512.2 L-224.2,-505.5 L-243.0,-503.5 L-248.7,-501.0 M54.4,-23.9 L53.0,-26.7 L48.0,-37.9 L42.2,-50.3 L40.2,-54.5 M562.0,-650.0 L580.8,-611.1 L589.6,-593.0 L590.2,-591.5 L592.7,-586.6 L617.6,-535.4 M562.0,-650.0 L553.9,-668.2 M40.2,-54.5 L35.2,-65.4 L33.0,-70.3 L20.8,-96.8 L15.9,-107.7 M-780.9,66.1 L-764.1,89.2 L-742.0,119.6 L-739.6,122.8 L-734.2,129.9 L-726.4,138.1 L-718.2,145.8 L-706.1,152.3 L-689.0,158.2 L-672.7,159.8 L-659.4,158.2 L-642.1,152.8 L-621.7,145.7 L-598.2,137.9 L-594.6,137.5 L-577.8,135.8 L-565.7,133.0 L-555.3,132.3 L-544.0,132.6 L-534.6,133.8 L-523.0,136.5 L-521.3,136.9 L-510.9,141.2 L-499.2,148.1 L-486.4,158.3 L-466.0,181.1 L-460.3,186.8 L-455.7,191.8 L-453.8,193.8 L-450.6,197.3 L-445.8,202.2 L-444.7,203.4 L-427.1,223.1 L-421.3,228.3 L-400.9,245.8 L-393.7,251.2 L-386.1,255.7 L-377.8,259.3 L-374.4,260.6 L-360.7,264.2 L-351.1,265.7 L-337.6,266.4 L-324.0,268.6 L-311.1,270.5 L-242.9,271.7 L-190.4,272.3 L-187.9,272.3 L-108.7,273.4 L-91.4,272.7 M272.3,-607.1 L256.4,-599.2 L252.0,-596.8 L243.7,-592.2 M28.7,-515.7 L-26.2,-512.9 L-44.9,-511.9 L-67.9,-510.8 L-76.9,-510.6 L-90.0,-511.0 M-355.1,-495.0 L-384.9,-493.6 L-409.8,-492.9 M-84.5,-442.4 L-86.1,-466.6 L-87.1,-481.1 L-87.6,-487.9 L-87.9,-490.6 L-88.6,-497.5 M410.5,142.3 L416.2,139.6 L433.1,131.6 L477.4,110.7 L492.7,103.4 L497.3,101.3 L500.6,99.7 L508.5,96.0 L515.9,92.5 L554.2,74.4 M140.5,256.1 L148.7,254.7 L167.6,252.1 L174.4,251.3 L178.4,250.6 L183.4,249.8 M526.3,-730.1 L513.4,-723.6 L438.8,-688.4 L385.1,-662.8 L382.5,-661.6 L377.5,-659.0 M-683.9,-466.3 L-673.8,-467.7 L-586.6,-472.9 L-579.4,-473.2 M-78.8,-345.9 L-80.2,-362.7 L-81.4,-380.5 M-71.9,-306.7 L-73.9,-317.6 L-76.1,-329.0 L-78.8,-345.9 M-37.2,-220.9 L-42.5,-232.4 L-51.0,-251.4 L-62.5,-276.7 M-62.5,-276.7 L-68.7,-292.0 L-71.9,-306.7 M-508.8,-486.5 L-564.8,-483.6 L-572.4,-483.3 L-580.4,-482.9 L-669.2,-478.0 L-673.6,-477.8 L-682.9,-477.4 M-90.6,-524.9 L-90.8,-528.6 L-91.3,-544.3 L-91.7,-552.8 M-248.7,-501.0 L-274.7,-498.8 L-355.1,-495.0 M200.3,-545.3 L213.1,-554.9 L214.7,-556.0 L234.6,-569.6 L240.2,-573.4 L249.7,-579.8 M-174.9,-494.1 L-132.8,-495.5 L-114.4,-496.2 L-106.3,-496.7 L-103.1,-496.8 L-88.6,-497.5 M-83.3,-402.4 L-83.0,-420.3 L-84.1,-436.8 L-84.5,-442.4 M-93.0,-588.2 L-93.4,-598.5 M-91.7,-552.8 L-93.0,-588.2 M-90.0,-511.0 L-90.3,-518.2 L-90.6,-524.9 M-81.4,-380.5 L-81.7,-383.9 L-83.3,-402.4 M62.2,-6.5 L58.3,-15.3 L54.4,-23.9 M-91.4,272.7 L-69.3,270.8 L-8.1,271.3 L51.0,272.0 L56.3,271.3 L64.9,270.1 L109.8,261.8 L140.5,256.1 M-409.8,-492.9 L-422.6,-492.7 L-432.9,-492.1 L-473.6,-490.6 L-493.1,-489.8 L-508.8,-486.5 M226.6,229.4 L233.1,226.0 L260.0,213.2 L304.2,192.2 L373.9,159.6 L402.3,146.1 L410.5,142.3 M554.2,74.4 L580.6,61.9 L621.0,42.7 L623.9,41.6 L684.0,13.0 L694.8,8.3 L720.0,-3.4 L743.9,-14.5 M673.5,-420.6 L677.5,-412.0 L679.2,-408.5 L705.8,-353.6 L715.4,-334.1 L719.4,-325.9 M-177.7,-494.2 L-174.9,-494.1 M58.9,-516.6 L46.0,-516.3 L40.3,-516.2 L28.7,-515.7" stroke="#ffffff" stroke-width="5.5" stroke-opacity="0.85" fill="none" stroke-linecap="round" stroke-linejoin="round"/>
    <path d="M218.5,325.2 L208.1,302.2 L201.4,287.4 M-253.2,117.2 L-239.7,114.3 L-177.0,89.9 L-173.6,88.6 M298.4,502.6 L298.6,499.2 L297.8,495.5 L295.7,489.8 M183.4,249.8 L179.1,241.6 L174.7,233.0 L169.6,223.0 L166.7,217.3 M96.0,65.6 L94.3,62.2 L92.2,57.5 L88.1,48.9 L84.9,42.1 M62.2,-6.5 L71.8,-10.0 L75.5,-11.4 L86.4,-15.4 L93.3,-17.9 L100.4,-20.5 L105.2,-22.4 L126.5,-30.6 M447.5,-157.8 L461.6,-163.5 L477.9,-169.9 L491.4,-174.9 L492.6,-175.4 L510.0,-182.4 L523.6,-187.7 M187.7,-54.9 L226.2,-69.3 L245.7,-77.1 L256.7,-81.5 L271.5,-87.4 L290.6,-95.0 L298.1,-98.0 M-639.6,493.4 L-643.2,496.1 L-647.8,498.9 L-654.2,501.8 L-662.3,504.6 L-693.6,511.9 L-703.9,513.4 L-714.7,514.3 L-722.7,513.7 L-730.0,512.5 L-743.8,507.8 L-751.8,503.3 L-758.1,498.9 L-763.0,494.6 L-769.8,487.6 L-773.7,482.6 L-776.8,477.6 L-782.0,466.7 L-787.8,446.4 M140.6,829.6 L139.8,818.9 L144.4,782.5 L147.1,763.4 L147.8,748.5 L147.7,737.6 L146.8,724.9 L145.0,711.6 L142.6,699.9 L140.0,686.6 L137.6,673.5 L136.6,662.3 L137.0,653.5 L138.6,643.6 L141.2,634.3 L145.5,624.7 L152.0,614.7 M270.7,435.2 L218.5,325.2 M-659.8,350.2 L-653.1,357.0 L-647.0,364.7 L-642.4,371.7 L-637.9,381.0 L-633.0,394.8 L-629.0,408.2 L-623.4,431.5 L-622.1,437.7 L-621.1,444.0 L-620.8,448.7 L-621.1,452.9 M267.8,529.8 L284.6,518.6 L287.3,516.8 L292.4,513.3 L294.8,511.1 L296.4,508.5 L297.6,505.6 L298.4,502.6 M-54.4,41.4 L-45.2,37.7 L-29.3,31.6 M27.4,7.9 L31.2,6.3 L34.7,4.9 L46.6,-0.0 L50.3,-1.6 L62.2,-6.5 M-571.4,-128.0 L-574.2,-118.2 L-577.6,-108.9 L-584.5,-94.9 L-590.8,-79.9 L-595.5,-66.0 L-597.3,-57.5 L-597.9,-46.8 L-597.1,-32.5 L-592.5,-15.1 L-586.0,0.5 L-582.9,6.2 L-578.4,13.7 L-572.8,20.1 L-560.8,32.0 L-550.8,39.6 L-542.9,44.6 L-536.9,47.9 L-528.9,51.2 L-517.8,53.4 L-506.2,55.5 L-496.3,56.2 L-486.3,55.9 L-476.2,54.5 L-465.9,52.2 L-456.9,49.4 L-447.7,45.0 L-436.6,38.6 L-426.4,32.7 L-417.3,28.9 L-408.7,27.3 L-397.1,27.5 L-387.8,29.3 L-380.1,32.1 L-371.0,38.3 L-358.6,49.2 L-340.6,65.8 M-29.3,31.6 L7.5,16.2 L12.6,14.0 L27.4,7.9 M589.2,-215.0 L623.1,-229.1 L674.9,-250.7 M201.4,287.4 L189.8,263.2 L187.8,259.1 L183.4,249.8 M154.0,189.6 L139.6,159.3 L136.7,153.2 L135.3,150.3 L131.3,141.9 M-687.2,325.1 L-659.8,350.2 M-311.8,93.0 L-299.6,104.2 L-291.0,110.9 L-281.7,115.0 L-266.7,118.0 L-260.9,117.7 L-253.2,117.2 M68.0,6.2 L65.5,0.8 L62.2,-6.5 M-580.7,-159.6 L-576.6,-153.1 L-574.3,-147.7 L-571.8,-136.7 L-571.4,-128.0 M-647.4,-221.7 L-642.7,-217.4 L-618.6,-195.3 L-594.3,-173.3 L-585.5,-165.3 L-580.7,-159.6 M-173.6,88.6 L-131.2,71.8 L-54.4,41.4 M152.0,614.7 L157.1,607.2 L162.3,601.1 L169.2,593.9 L175.9,588.2 L184.3,582.6 M295.7,489.8 L284.2,463.3 L275.2,444.3 M237.3,548.7 L254.1,538.2 L267.8,529.8 M184.3,582.6 L237.3,548.7 M275.2,444.3 L270.7,435.2 M110.3,96.3 L96.0,65.6 M131.3,141.9 L127.7,134.1 L126.0,130.3 L110.3,96.3 M166.7,217.3 L154.0,189.6 M84.9,42.1 L75.2,21.6 L70.8,12.2 L68.0,6.2 M126.5,-30.6 L187.7,-54.9 M298.1,-98.0 L305.6,-101.0 L308.9,-102.2 L391.4,-133.5 L394.9,-135.0 L432.3,-151.2 L437.4,-153.4 L447.5,-157.8 M674.9,-250.7 L683.6,-254.6 M523.6,-187.7 L544.9,-196.6 L589.2,-215.0 M-340.6,65.8 L-330.0,75.6 L-311.8,93.0 M-621.1,452.9 L-622.5,461.3 L-624.1,467.7 L-625.3,471.1 L-627.8,478.0 L-632.5,485.3 L-635.5,489.3 L-639.6,493.4 M-647.4,-221.7 L-656.0,-232.5 L-664.5,-237.2 L-674.0,-239.7 L-677.3,-240.4 L-683.3,-241.1 L-688.2,-241.0 M-684.8,-233.0 L-677.2,-232.8 L-670.9,-231.7 L-665.1,-229.7 L-647.4,-221.7" stroke="#ffffff" stroke-width="7.0" stroke-opacity="0.95" fill="none" stroke-linecap="round" stroke-linejoin="round"/>
  </g>
  <g><path transform="scale(0.30) translate(-540.0,-500.12)" d="M642.12,500.31l-66.05-15.04,36.27-57.22-57.34,36.07-14.81-66.11-15.04,66.05-57.22-36.27,36.07,57.34-66.11,14.81,66.05,15.04-36.27,57.22,57.34-36.07,14.81,66.11,15.04-66.05,57.22,36.27-36.07-57.34,66.11-14.81ZM539.85,519.25c-10.36,0-18.76-8.4-18.76-18.76s8.4-18.76,18.76-18.76,18.76,8.4,18.76,18.76-8.4,18.76-18.76,18.76Z" fill="#ff2c3b"/></g>
</svg>