<?xml version="1.0" encoding="UTF-8"?>
<svg id="Ebene_1" data-name="Ebene 1" xmlns="http://www.w3.org/2000/svg" viewBox="0 0 1527.4 300.35">
  <defs>
    <style>
      .cls-1 {
        fill: #ff2c3b;
      }
    </style>
  </defs>
  <g id="zSRhly.tif">
    <path class="cls-1" d="M828.68,95.93c1.03,1.01,6.28,2.31,8.01,2.48,191.02,6.74,382.07,12.43,573,20.98,27.29-1.01,53.82.75,80.65,2.16,9.9.52,19.89-.24,29.77,1.15,7.43,1.04,9.62,11.41,4.55,15.47-1.37,1.1-10,3.01-12.23,3.22-17.89,1.7-39.09,1.28-57.41,2.21-176.06,8.92-351.66,18.1-527.77,27.55-16.73.9-33.55.62-50.24,2.2-1.94,1.75,11.39,21.03,13.06,23.88,17.09,29.08,34.49,58.22,51.56,87.4,2.72,9.95-4.71,18.3-14.98,14.96-49.83-33.18-97.64-69.51-146.89-103.57-6.63-4.59-14.21-11.49-22.38-7.07l-150.54,106.55c-11.92,10.62-26.38.76-19.68-14.13l62.63-102.82c3.11-7.45-.98-4.67-6.33-5.2-19.96-1.99-41.53-2.31-61.83-3.31-184.87-9.11-369.25-19.35-554.32-27.51-5.52-.24-13.54-.51-18.77-1.1-10.54-1.18-11.1-15.52-3.01-17.42,2.33-.55,8.17-1.2,10.78-1.37,21.76-1.49,45.31-1.39,67.36-2.19,168.79-6.1,338.81-12.6,507.94-18.69,28.4-1.02,57.49-1.84,86.07-3.37,5.46-.29,18.11,1.22,22.07-2.22l55.51-91.19c4.37-6.38,14.06-6.65,18.89-.67l54.51,91.63Z"/>
  </g>
</svg>