<svg xmlns="http://www.w3.org/2000/svg" viewBox="38.28 429.19 1838.26 221.62" fill="currentColor" role="img" aria-hidden="true">
  <path d="M41.28,432.19h30.97l76.49,123.42h.47v-123.42h27.92v167.53h-30.97l-76.26-123.18h-.7v123.18h-27.92v-167.53Z"/>
  <path d="M217.26,545.98c0,4.69.66,9.23,1.99,13.61,1.33,4.38,3.32,8.21,5.98,11.5,2.66,3.29,6.02,5.91,10.09,7.86,4.07,1.96,8.92,2.93,14.55,2.93,7.82,0,14.11-1.68,18.89-5.04,4.77-3.36,8.33-8.41,10.68-15.13h25.34c-1.41,6.57-3.83,12.44-7.27,17.6-3.44,5.16-7.59,9.5-12.44,13.02-4.85,3.52-10.29,6.18-16.31,7.98-6.02,1.8-12.32,2.7-18.89,2.7-9.54,0-17.99-1.56-25.34-4.69-7.35-3.13-13.57-7.51-18.65-13.14-5.09-5.63-8.92-12.36-11.5-20.18-2.58-7.82-3.87-16.42-3.87-25.81,0-8.6,1.37-16.78,4.11-24.52,2.73-7.74,6.65-14.55,11.73-20.41,5.08-5.87,11.22-10.52,18.42-13.96,7.19-3.44,15.33-5.16,24.4-5.16,9.54,0,18.1,1.99,25.69,5.98,7.59,3.99,13.88,9.27,18.89,15.84,5,6.57,8.64,14.12,10.91,22.64,2.27,8.53,2.85,17.33,1.76,26.4h-89.16ZM279.67,528.39c-.32-4.22-1.21-8.29-2.7-12.2-1.49-3.91-3.52-7.31-6.1-10.21-2.58-2.89-5.71-5.24-9.39-7.04-3.68-1.8-7.78-2.7-12.32-2.7s-8.96.82-12.79,2.46c-3.84,1.64-7.12,3.91-9.85,6.8-2.74,2.9-4.93,6.3-6.57,10.21-1.64,3.91-2.54,8.13-2.7,12.67h62.41Z"/>
  <path d="M421.62,599.71h-26.28v-16.89h-.47c-3.28,6.1-8.18,10.99-14.66,14.66-6.49,3.67-13.1,5.51-19.83,5.51-15.96,0-27.49-3.95-34.61-11.85-7.12-7.9-10.68-19.83-10.68-35.78v-76.96h26.75v74.38c0,10.64,2.03,18.15,6.1,22.53,4.07,4.38,9.77,6.57,17.13,6.57,5.63,0,10.32-.86,14.08-2.58,3.75-1.72,6.8-4.02,9.15-6.92,2.35-2.89,4.03-6.37,5.04-10.44,1.02-4.07,1.52-8.45,1.52-13.14v-70.39h26.75v121.31Z"/>
  <path d="M458.93,545.98c0,4.69.66,9.23,1.99,13.61,1.33,4.38,3.32,8.21,5.98,11.5,2.66,3.29,6.02,5.91,10.09,7.86,4.07,1.96,8.92,2.93,14.55,2.93,7.82,0,14.11-1.68,18.89-5.04,4.77-3.36,8.33-8.41,10.68-15.13h25.34c-1.41,6.57-3.83,12.44-7.27,17.6-3.44,5.16-7.59,9.5-12.44,13.02-4.85,3.52-10.29,6.18-16.31,7.98-6.02,1.8-12.32,2.7-18.89,2.7-9.54,0-17.99-1.56-25.34-4.69-7.35-3.13-13.57-7.51-18.65-13.14-5.09-5.63-8.92-12.36-11.5-20.18-2.58-7.82-3.87-16.42-3.87-25.81,0-8.6,1.37-16.78,4.11-24.52,2.73-7.74,6.65-14.55,11.73-20.41,5.08-5.87,11.22-10.52,18.42-13.96,7.19-3.44,15.33-5.16,24.4-5.16,9.54,0,18.1,1.99,25.69,5.98,7.59,3.99,13.88,9.27,18.89,15.84,5,6.57,8.64,14.12,10.91,22.64,2.27,8.53,2.85,17.33,1.76,26.4h-89.16ZM521.34,528.39c-.32-4.22-1.21-8.29-2.7-12.2-1.49-3.91-3.52-7.31-6.1-10.21-2.58-2.89-5.71-5.24-9.39-7.04-3.68-1.8-7.78-2.7-12.32-2.7s-8.96.82-12.79,2.46c-3.84,1.64-7.12,3.91-9.85,6.8-2.74,2.9-4.93,6.3-6.57,10.21-1.64,3.91-2.54,8.13-2.7,12.67h62.41Z"/>
  <path d="M597.6,432.19h29.8l30.27,128.11h.47l33.79-128.11h30.03l32.85,128.11h.47l31.21-128.11h29.8l-46.22,167.53h-29.8l-33.55-128.11h-.47l-34.26,128.11h-30.27l-44.11-167.53Z"/>
  <path d="M836.69,545.98c0,4.69.66,9.23,1.99,13.61,1.33,4.38,3.32,8.21,5.98,11.5,2.66,3.29,6.02,5.91,10.09,7.86,4.07,1.96,8.92,2.93,14.55,2.93,7.82,0,14.11-1.68,18.89-5.04,4.77-3.36,8.33-8.41,10.68-15.13h25.34c-1.41,6.57-3.83,12.44-7.27,17.6-3.44,5.16-7.59,9.5-12.44,13.02-4.85,3.52-10.29,6.18-16.31,7.98-6.02,1.8-12.32,2.7-18.89,2.7-9.54,0-17.99-1.56-25.34-4.69-7.35-3.13-13.57-7.51-18.65-13.14-5.09-5.63-8.92-12.36-11.5-20.18-2.58-7.82-3.87-16.42-3.87-25.81,0-8.6,1.37-16.78,4.11-24.52,2.73-7.74,6.65-14.55,11.73-20.41,5.08-5.87,11.22-10.52,18.42-13.96,7.19-3.44,15.33-5.16,24.4-5.16,9.54,0,18.1,1.99,25.69,5.98,7.59,3.99,13.88,9.27,18.89,15.84,5,6.57,8.64,14.12,10.91,22.64,2.27,8.53,2.85,17.33,1.76,26.4h-89.16ZM899.1,528.39c-.32-4.22-1.21-8.29-2.7-12.2-1.49-3.91-3.52-7.31-6.1-10.21-2.58-2.89-5.71-5.24-9.39-7.04-3.68-1.8-7.78-2.7-12.32-2.7s-8.96.82-12.79,2.46c-3.84,1.64-7.12,3.91-9.86,6.8-2.74,2.9-4.93,6.3-6.57,10.21-1.64,3.91-2.54,8.13-2.7,12.67h62.41Z"/>
  <path d="M935.24,432.19h26.75v167.53h-26.75v-167.53Z"/>
  <path d="M967.14,478.41h20.18v-36.37h26.75v36.37h24.17v19.94h-24.17v64.76c0,2.82.12,5.24.35,7.27.23,2.03.78,3.75,1.64,5.16.86,1.41,2.15,2.46,3.87,3.17,1.72.7,4.07,1.06,7.04,1.06,1.88,0,3.75-.04,5.63-.12,1.88-.08,3.75-.35,5.63-.82v20.65c-2.97.31-5.87.62-8.68.94-2.82.31-5.71.47-8.68.47-7.04,0-12.71-.67-17.01-1.99-4.3-1.33-7.67-3.28-10.09-5.87-2.43-2.58-4.07-5.83-4.93-9.74-.86-3.91-1.37-8.37-1.52-13.37v-71.56h-20.18v-19.94Z"/>
  <path d="M1147.81,432.19h31.21l64.52,167.53h-31.44l-15.72-44.35h-66.87l-15.72,44.35h-30.27l64.29-167.53ZM1137.49,533.08h51.15l-25.11-72.03h-.7l-25.34,72.03Z"/>
  <path d="M1356.17,593.38c0,18.3-5.12,31.95-15.37,40.94-10.25,8.99-24.99,13.49-44.23,13.49-6.1,0-12.24-.63-18.42-1.88-6.18-1.25-11.81-3.37-16.89-6.34-5.09-2.97-9.35-6.89-12.79-11.73-3.44-4.85-5.48-10.79-6.1-17.83h26.75c.78,3.75,2.11,6.8,3.99,9.15,1.88,2.35,4.11,4.18,6.69,5.51,2.58,1.33,5.43,2.19,8.56,2.58,3.13.39,6.41.59,9.86.59,10.79,0,18.69-2.66,23.7-7.98,5-5.32,7.51-12.99,7.51-22.99v-18.54h-.47c-3.75,6.73-8.88,11.97-15.37,15.72-6.49,3.75-13.49,5.63-21,5.63-9.7,0-17.95-1.68-24.75-5.04-6.8-3.36-12.44-7.98-16.89-13.84-4.46-5.87-7.71-12.63-9.74-20.3-2.03-7.66-3.05-15.87-3.05-24.64,0-8.13,1.25-15.87,3.75-23.23,2.5-7.35,6.1-13.8,10.79-19.36,4.69-5.55,10.44-9.97,17.24-13.26,6.81-3.28,14.51-4.93,23.11-4.93,7.66,0,14.7,1.61,21.12,4.81,6.41,3.21,11.34,8.25,14.78,15.13h.47v-16.66h26.75v114.97ZM1296.8,578.6c5.94,0,10.99-1.21,15.13-3.64,4.14-2.42,7.51-5.63,10.09-9.62,2.58-3.99,4.46-8.52,5.63-13.61,1.17-5.08,1.76-10.21,1.76-15.37s-.63-10.17-1.88-15.02c-1.25-4.85-3.17-9.15-5.75-12.9-2.58-3.75-5.95-6.72-10.09-8.92-4.15-2.19-9.11-3.28-14.9-3.28s-10.95,1.25-15.02,3.75c-4.07,2.5-7.35,5.75-9.86,9.74-2.5,3.99-4.3,8.53-5.4,13.61-1.1,5.08-1.64,10.13-1.64,15.13s.62,9.9,1.88,14.66c1.25,4.77,3.17,9.03,5.75,12.79,2.58,3.75,5.87,6.8,9.86,9.15,3.99,2.35,8.8,3.52,14.43,3.52Z"/>
  <path d="M1392.3,545.98c0,4.69.66,9.23,1.99,13.61,1.33,4.38,3.32,8.21,5.98,11.5,2.66,3.29,6.02,5.91,10.09,7.86,4.07,1.96,8.92,2.93,14.55,2.93,7.82,0,14.11-1.68,18.89-5.04,4.77-3.36,8.33-8.41,10.68-15.13h25.34c-1.41,6.57-3.84,12.44-7.27,17.6-3.44,5.16-7.59,9.5-12.44,13.02-4.85,3.52-10.29,6.18-16.31,7.98-6.02,1.8-12.32,2.7-18.89,2.7-9.54,0-17.99-1.56-25.34-4.69-7.35-3.13-13.57-7.51-18.65-13.14-5.08-5.63-8.92-12.36-11.5-20.18-2.58-7.82-3.87-16.42-3.87-25.81,0-8.6,1.37-16.78,4.11-24.52,2.73-7.74,6.65-14.55,11.73-20.41,5.08-5.87,11.22-10.52,18.42-13.96,7.19-3.44,15.33-5.16,24.4-5.16,9.54,0,18.1,1.99,25.69,5.98,7.58,3.99,13.88,9.27,18.89,15.84,5,6.57,8.64,14.12,10.91,22.64,2.27,8.53,2.85,17.33,1.76,26.4h-89.16ZM1454.71,528.39c-.32-4.22-1.21-8.29-2.7-12.2-1.49-3.91-3.52-7.31-6.1-10.21-2.58-2.89-5.71-5.24-9.39-7.04-3.68-1.8-7.78-2.7-12.32-2.7s-8.96.82-12.79,2.46c-3.83,1.64-7.12,3.91-9.85,6.8-2.74,2.9-4.93,6.3-6.57,10.21-1.64,3.91-2.54,8.13-2.7,12.67h62.41Z"/>
  <path d="M1490.14,478.41h25.34v17.83l.47.47c4.07-6.72,9.39-12,15.95-15.84,6.57-3.83,13.84-5.75,21.82-5.75,13.29,0,23.78,3.44,31.44,10.32,7.66,6.89,11.5,17.21,11.5,30.97v83.3h-26.75v-76.26c-.32-9.54-2.35-16.46-6.1-20.77-3.75-4.3-9.62-6.45-17.6-6.45-4.54,0-8.6.82-12.2,2.46-3.6,1.64-6.65,3.91-9.15,6.8-2.5,2.9-4.46,6.3-5.87,10.21-1.41,3.91-2.11,8.06-2.11,12.44v71.56h-26.75v-121.31Z"/>
  <path d="M1600.89,478.41h20.18v-36.37h26.75v36.37h24.17v19.94h-24.17v64.76c0,2.82.12,5.24.35,7.27.23,2.03.78,3.75,1.64,5.16.86,1.41,2.15,2.46,3.87,3.17,1.72.7,4.07,1.06,7.04,1.06,1.88,0,3.75-.04,5.63-.12,1.88-.08,3.75-.35,5.63-.82v20.65c-2.97.31-5.87.62-8.68.94-2.81.31-5.71.47-8.68.47-7.04,0-12.71-.67-17.01-1.99-4.3-1.33-7.67-3.28-10.09-5.87-2.43-2.58-4.07-5.83-4.93-9.74-.86-3.91-1.37-8.37-1.52-13.37v-71.56h-20.18v-19.94Z"/>
  <path d="M1786.01,599.71h-26.28v-16.89h-.47c-3.28,6.1-8.18,10.99-14.66,14.66-6.49,3.67-13.1,5.51-19.83,5.51-15.95,0-27.49-3.95-34.61-11.85-7.12-7.9-10.68-19.83-10.68-35.78v-76.96h26.75v74.38c0,10.64,2.03,18.15,6.1,22.53,4.07,4.38,9.77,6.57,17.13,6.57,5.63,0,10.32-.86,14.08-2.58,3.75-1.72,6.81-4.02,9.15-6.92,2.35-2.89,4.02-6.37,5.04-10.44,1.02-4.07,1.52-8.45,1.52-13.14v-70.39h26.75v121.31Z"/>
  <path d="M1802.43,478.41h25.11v23.46h.47c.78-3.28,2.31-6.49,4.58-9.62,2.27-3.13,5-5.98,8.21-8.57,3.2-2.58,6.76-4.65,10.68-6.22,3.91-1.56,7.9-2.35,11.97-2.35,3.13,0,5.28.08,6.45.23,1.17.16,2.38.32,3.64.47v25.81c-1.88-.31-3.79-.59-5.75-.82-1.96-.23-3.87-.35-5.75-.35-4.54,0-8.8.9-12.79,2.7-3.99,1.8-7.47,4.46-10.44,7.98-2.97,3.52-5.32,7.86-7.04,13.02-1.72,5.16-2.58,11.11-2.58,17.83v57.72h-26.75v-121.31Z"/>
</svg>
